<svg width="14" height="12" viewBox="0 0 14 12" fill="none" xmlns="http://www.w3.org/2000/svg">
<path d="M1.06641 6.24219C0.929688 6.10547 0.875 5.94141 0.875 5.75C0.875 5.58594 0.929688 5.42188 1.06641 5.28516L5.87891 0.691406C6.15234 0.445312 6.5625 0.445312 6.80859 0.71875C7.05469 0.964844 7.05469 1.40234 6.78125 1.64844L3.14453 5.09375H12.4688C12.8242 5.09375 13.125 5.39453 13.125 5.75C13.125 6.13281 12.8242 6.40625 12.4688 6.40625H3.14453L6.78125 9.87891C7.05469 10.125 7.05469 10.5352 6.80859 10.8086C6.5625 11.082 6.15234 11.082 5.87891 10.8359L1.06641 6.24219Z" fill="white"/>
</svg>
