<svg width="13" height="13" viewBox="0 0 13 13" fill="none" xmlns="http://www.w3.org/2000/svg">
<path d="M6.5 12.5C4.34375 12.5 2.375 11.375 1.29688 9.5C0.21875 7.64844 0.21875 5.375 1.29688 3.5C2.375 1.64844 4.34375 0.5 6.5 0.5C8.63281 0.5 10.6016 1.64844 11.6797 3.5C12.7578 5.375 12.7578 7.64844 11.6797 9.5C10.6016 11.375 8.63281 12.5 6.5 12.5ZM9.14844 5.39844H9.125C9.35938 5.1875 9.35938 4.83594 9.125 4.60156C8.91406 4.39062 8.5625 4.39062 8.35156 4.60156L5.75 7.22656L4.64844 6.125C4.41406 5.89062 4.0625 5.89062 3.85156 6.125C3.61719 6.33594 3.61719 6.6875 3.85156 6.89844L5.35156 8.39844C5.5625 8.63281 5.91406 8.63281 6.14844 8.39844L9.14844 5.39844Z" fill="black"/>
</svg>
