<svg width="10" height="15" viewBox="0 0 10 15" fill="none" xmlns="http://www.w3.org/2000/svg">
<path d="M7.1875 11.25H2.8125C2.53906 10.4023 1.99219 9.63672 1.44531 8.89844C1.30859 8.70703 1.17188 8.51562 1.03516 8.32422C0.488281 7.53125 0.1875 6.60156 0.1875 5.5625C0.1875 2.91016 2.32031 0.75 5 0.75C7.65234 0.75 9.8125 2.91016 9.8125 5.58984C9.8125 6.60156 9.48438 7.53125 8.9375 8.32422C8.80078 8.51562 8.66406 8.70703 8.52734 8.89844C7.98047 9.63672 7.43359 10.4023 7.1875 11.25ZM5 14.75C3.76953 14.75 2.8125 13.793 2.8125 12.5625V12.125H7.1875V12.5625C7.1875 13.793 6.20312 14.75 5 14.75ZM2.8125 5.5625C2.8125 4.35938 3.76953 3.375 5 3.375C5.21875 3.375 5.4375 3.18359 5.4375 2.9375C5.4375 2.71875 5.21875 2.5 5 2.5C3.30469 2.5 1.9375 3.89453 1.9375 5.5625C1.9375 5.80859 2.12891 6 2.375 6C2.59375 6 2.8125 5.80859 2.8125 5.5625Z" fill="black"/>
</svg>
