<svg width="123" height="96" viewBox="0 0 123 96" fill="none" xmlns="http://www.w3.org/2000/svg">
<path d="M98.1715 6.34206L98.1634 6.34996C94.6014 9.85258 94.6014 15.5314 98.1634 19.0341L102.838 23.6307C106.4 27.1333 112.175 27.1333 115.737 23.6307L115.745 23.6228C119.307 20.1202 119.307 14.4413 115.745 10.9387L111.071 6.34206C107.509 2.83944 101.733 2.83944 98.1715 6.34206Z" fill="#6562DE"/>
<path d="M35.9605 7.31521L35.9525 7.3231C32.3905 10.8257 32.3905 16.5046 35.9525 20.0072L78.1759 61.5268C81.7379 65.0294 87.513 65.0294 91.075 61.5268L91.0831 61.5189C94.6451 58.0163 94.6451 52.3374 91.0831 48.8348L48.8597 7.31521C45.2977 3.81258 39.5225 3.81259 35.9605 7.31521Z" fill="#6562DE"/>
<path d="M24.0234 89.6579L24.0314 89.65C27.5934 86.1474 27.5934 80.4685 24.0314 76.9659L19.3569 72.3693C15.7949 68.8667 10.0197 68.8667 6.45772 72.3693L6.44968 72.3772C2.88768 75.8798 2.88768 81.5587 6.44968 85.0613L11.1242 89.6579C14.6862 93.1606 20.4614 93.1606 24.0234 89.6579Z" fill="#6562DE"/>
<path d="M50.0859 84.3797L50.0939 84.3718C53.6559 80.8691 53.6559 75.1903 50.0939 71.6876L31.6769 53.5776C28.1149 50.075 22.3397 50.075 18.7777 53.5776L18.7697 53.5855C15.2077 57.0881 15.2077 62.767 18.7697 66.2696L37.1867 84.3797C40.7487 87.8823 46.5239 87.8823 50.0859 84.3797Z" fill="#6562DE"/>
<path d="M86.2235 88.6799L86.2316 88.672C89.7936 85.1694 89.7936 79.4905 86.2316 75.9879L44.0082 34.4683C40.4462 30.9657 34.671 30.9657 31.109 34.4683L31.101 34.4762C27.539 37.9789 27.539 43.6577 31.101 47.1604L73.3244 88.6799C76.8864 92.1825 82.6616 92.1825 86.2235 88.6799Z" fill="#6562DE"/>
<path d="M103.81 42.8189L103.818 42.811C107.38 39.3084 107.38 33.6295 103.818 30.1269L85.4015 12.0169C81.8395 8.51429 76.0643 8.51428 72.5023 12.0169L72.4943 12.0248C68.9323 15.5274 68.9323 21.2063 72.4943 24.7089L90.9113 42.8189C94.4733 46.3216 100.248 46.3216 103.81 42.8189Z" fill="#6562DE"/>
</svg>
