<svg width="142" height="30" viewBox="0 0 142 30" fill="none" xmlns="http://www.w3.org/2000/svg">
<g clip-path="url(#clip0_1_662)">
<path d="M38.0258 11.1331C38.0258 10.2361 38.2313 9.47676 38.6485 8.85524C39.0626 8.23373 39.6106 7.72856 40.2956 7.34279C40.9805 6.95702 41.7496 6.67535 42.612 6.50389C43.4714 6.33244 44.337 6.24365 45.2056 6.24365C45.9311 6.24365 46.6348 6.29876 47.3197 6.41204C48.0047 6.52532 48.6399 6.67228 49.2315 6.85598C49.823 7.03968 50.3555 7.26318 50.8318 7.52955C51.3082 7.79591 51.7005 8.08065 52.0119 8.38375L48.6243 11.8067C48.478 11.5434 48.2476 11.3076 47.9238 11.1025C47.6031 10.9004 47.2512 10.732 46.8683 10.5973C46.4853 10.4657 46.0868 10.3646 45.6727 10.2912C45.2586 10.2207 44.8663 10.184 44.4926 10.184C44.038 10.184 43.6582 10.2514 43.3593 10.383C43.0573 10.5147 42.9078 10.7045 42.9078 10.9494C42.9078 11.3168 43.1413 11.5954 43.6084 11.7883C44.0754 11.9812 44.6608 12.1588 45.3644 12.3241C46.0681 12.4864 46.8247 12.6609 47.6342 12.8446C48.4437 13.0283 49.1972 13.2916 49.904 13.6406C50.6077 13.9866 51.193 14.4458 51.66 15.0153C52.1271 15.5848 52.3606 16.3287 52.3606 17.2472C52.3606 18.1657 52.1364 18.9036 51.6912 19.5251C51.2459 20.1466 50.6668 20.6518 49.9507 21.0376C49.2346 21.4233 48.4344 21.705 47.5439 21.8795C46.6534 22.051 45.7723 22.1398 44.9036 22.1398C44.1782 22.1398 43.4278 22.0847 42.6494 21.9714C41.871 21.8581 41.13 21.7111 40.4263 21.5274C39.7227 21.3437 39.0906 21.1202 38.5302 20.8539C37.9697 20.5906 37.5369 20.3028 37.2256 19.9997L40.6131 16.5767C40.8 16.8217 41.0584 17.0299 41.3915 17.2044C41.7216 17.3789 42.0921 17.5197 42.4937 17.633C42.8985 17.7463 43.3188 17.832 43.7516 17.8933C44.1875 17.9545 44.6109 17.9851 45.025 17.9851C45.6882 17.9851 46.2642 17.9208 46.75 17.7861C47.2357 17.6544 47.4816 17.4554 47.4816 17.1891C47.4816 16.8829 47.2481 16.6349 46.7811 16.439C46.3141 16.2461 45.7287 16.0685 45.025 15.9032C44.3214 15.7409 43.5648 15.5572 42.7553 15.3521C41.9457 15.1469 41.1923 14.8745 40.4855 14.5254C39.7818 14.1795 39.1965 13.7355 38.7294 13.1967C38.2624 12.6578 38.0289 11.9689 38.0289 11.1331H38.0258Z" fill="white"/>
<path d="M53.1577 14.1886C53.1577 13.0467 53.3321 11.9873 53.687 11.0107C54.0389 10.034 54.5682 9.19203 55.2718 8.49091C55.9755 7.78673 56.8628 7.23869 57.9277 6.84067C58.9956 6.44266 60.2317 6.24365 61.6422 6.24365C63.0526 6.24365 64.2887 6.44266 65.3566 6.84067C66.4246 7.23869 67.3088 7.78673 68.0125 8.49091C68.7162 9.19203 69.2455 10.034 69.5973 11.0107C69.9491 11.9873 70.1266 13.0467 70.1266 14.1886C70.1266 15.3306 69.9491 16.39 69.5973 17.3666C69.2455 18.3433 68.7162 19.1853 68.0125 19.8864C67.3088 20.5875 66.4215 21.1386 65.3566 21.5366C64.2887 21.9346 63.0526 22.1336 61.6422 22.1336C60.2317 22.1336 58.9956 21.9346 57.9277 21.5366C56.8597 21.1386 55.9755 20.5906 55.2718 19.8864C54.5682 19.1822 54.0389 18.3433 53.687 17.3666C53.3352 16.39 53.1577 15.3306 53.1577 14.1886ZM58.0678 14.1886C58.0678 15.2878 58.3418 16.2002 58.8898 16.9227C59.4378 17.6453 60.3563 18.0065 61.639 18.0065C62.9218 18.0065 63.8403 17.6453 64.3883 16.9227C64.9363 16.2002 65.2134 15.2878 65.2134 14.1886C65.2134 13.0895 64.9394 12.1771 64.3883 11.4546C63.8403 10.732 62.9218 10.3708 61.639 10.3708C60.3563 10.3708 59.4378 10.732 58.8898 11.4546C58.3418 12.1771 58.0678 13.0895 58.0678 14.1886Z" fill="white"/>
<path d="M71.5527 21.8275V6.54982H76.4005L76.9921 8.35313C77.5712 7.63977 78.2188 7.1101 78.9349 6.76413C79.651 6.41817 80.5353 6.24365 81.5908 6.24365C82.5217 6.24365 83.3001 6.41204 83.9228 6.74883C84.5455 7.08561 85.0406 7.52649 85.4142 8.07758C85.7879 8.62868 86.0525 9.25938 86.2051 9.97275C86.3607 10.6861 86.4386 11.4209 86.4386 12.1741V21.8305H80.9992V12.5721C80.9992 11.7179 80.8217 11.1362 80.4699 10.83C80.1181 10.5238 79.704 10.3708 79.2276 10.3708C78.4212 10.3708 77.6739 10.8484 76.9889 11.8067V21.8305H71.5496L71.5527 21.8275Z" fill="white"/>
<path d="M95.9162 18.7413C95.5208 18.7413 95.144 18.7199 94.7829 18.6801C94.4186 18.6403 94.073 18.5883 93.7429 18.527C93.4721 18.6097 93.3382 18.7628 93.3382 18.9863C93.3382 19.3537 93.5873 19.6017 94.0854 19.7364C94.5836 19.868 95.2032 19.9721 95.9505 20.0425C96.6977 20.113 97.5103 20.2018 98.3884 20.3028C99.2695 20.4038 100.082 20.5998 100.826 20.8845C101.574 21.1692 102.193 21.604 102.691 22.1826C103.189 22.7644 103.439 23.5635 103.439 24.5799C103.439 25.6791 103.062 26.5914 102.305 27.314C101.549 28.0365 100.605 28.5815 99.4781 28.9489C98.3479 29.3163 97.1274 29.5 95.8103 29.5C94.4933 29.5 93.2728 29.3163 92.1426 28.9489C91.0124 28.5815 90.0721 28.0427 89.3155 27.3293C88.5589 26.6159 88.1821 25.7311 88.1821 24.6718C88.1821 24.1207 88.3098 23.5971 88.5713 23.0981C88.8297 22.599 89.2096 22.1765 89.7047 21.8306C89.331 21.5244 89.0321 21.157 88.8048 20.7314C88.5776 20.3028 88.4623 19.7854 88.4623 19.173C88.4623 18.5607 88.5651 17.9821 88.7737 17.4922C88.9823 17.0023 89.2594 16.5768 89.6144 16.2094C89.0975 15.597 88.7301 14.9326 88.5122 14.207C88.2942 13.4845 88.2164 12.7497 88.2786 12.0057C88.3409 11.2617 88.5464 10.5453 88.9014 9.8503C89.2532 9.15836 89.7451 8.54603 90.3772 8.01637C91.0092 7.4867 91.7907 7.05807 92.7248 6.73353C93.6558 6.409 94.7237 6.24367 95.9255 6.24367C96.2369 6.24367 96.5358 6.25285 96.8254 6.27428C97.1149 6.29572 97.3951 6.32633 97.666 6.36613L102.047 4.25665L103.912 7.00602L101.86 8.35009C102.772 9.24715 103.326 10.2912 103.523 11.4822C103.719 12.6731 103.569 13.809 103.071 14.8898C102.573 15.9705 101.729 16.8799 100.54 17.6238C99.3473 18.3678 97.8092 18.7383 95.9255 18.7383L95.9162 18.7413ZM93.7398 23.2328C93.2853 23.5175 93.0548 23.8635 93.0548 24.2707C93.0548 24.5156 93.1887 24.7177 93.4596 24.883C93.7274 25.0453 94.0699 25.1616 94.484 25.2351C94.8981 25.3055 95.3402 25.3423 95.8041 25.3423C96.268 25.3423 96.7102 25.3117 97.1243 25.2504C97.5384 25.1892 97.8809 25.0912 98.1486 24.9596C98.4164 24.8279 98.5534 24.6779 98.5534 24.5156C98.5534 24.2921 98.4195 24.1145 98.1486 23.9798C97.8777 23.8482 97.5166 23.741 97.062 23.6584C96.6074 23.5757 96.0937 23.5114 95.5239 23.4594C94.9541 23.4073 94.3594 23.3308 93.7367 23.2297L93.7398 23.2328ZM95.9162 10.3708C95.0039 10.3708 94.3221 10.5912 93.8644 11.029C93.4098 11.4669 93.1794 11.9567 93.1794 12.4956C93.1794 13.0344 93.4067 13.5243 93.8644 13.9621C94.319 14.3999 95.0039 14.6204 95.9162 14.6204C96.8285 14.6204 97.5103 14.403 97.968 13.9621C98.4226 13.5243 98.653 13.0344 98.653 12.4956C98.653 11.9567 98.4257 11.4669 97.968 11.029C97.5135 10.5912 96.8285 10.3708 95.9162 10.3708Z" fill="white"/>
<path d="M105.643 4.86898V0.5H111.082V4.86898H105.643ZM105.643 21.8275V6.54983H111.082V21.8275H105.643Z" fill="white"/>
<path d="M114.498 5.90995C114.498 4.68834 114.716 3.72086 115.152 3.0075C115.588 2.29413 116.145 1.75528 116.83 1.38788C117.515 1.02048 118.281 0.781672 119.131 0.668391C119.981 0.558171 120.809 0.5 121.616 0.5H124.785V4.68528H122.332C121.771 4.68528 121.332 4.73733 121.011 4.83837C120.691 4.9394 120.451 5.07718 120.298 5.25169C120.146 5.4262 120.043 5.62215 120.003 5.84871C119.962 6.07221 119.94 6.30796 119.94 6.55289H124.072V10.6769H119.94V21.8306H114.501V10.6769H112.511V6.55289H114.501V5.90995H114.498Z" fill="white"/>
<path d="M127.27 24.5493C127.622 24.5493 128.036 24.4789 128.512 24.335C128.988 24.1911 129.455 23.9982 129.91 23.7533C130.365 23.5084 130.769 23.2175 131.121 22.8838C131.473 22.547 131.713 22.1949 131.837 21.8306L125.592 6.55292H131.031L133.796 14.7428L136.561 6.55292H142L135.131 23.389C134.717 24.4085 134.294 25.278 133.858 26.0006C133.422 26.7231 132.936 27.3201 132.398 27.7886C131.859 28.257 131.264 28.603 130.611 28.8265C129.957 29.05 129.206 29.1632 128.356 29.1632L127.27 24.5493Z" fill="white"/>
<path d="M26.9097 3.73841L26.9075 3.74058C25.9312 4.70068 25.9312 6.25733 26.9075 7.21743L28.1889 8.47741C29.1653 9.43752 30.7483 9.43752 31.7247 8.47741L31.7269 8.47525C32.7033 7.51514 32.7033 5.9585 31.7269 4.99839L30.4455 3.73841C29.4692 2.7783 27.8861 2.7783 26.9097 3.73841Z" fill="#6562DE"/>
<path d="M9.85726 4.0052L9.85506 4.00736C8.87867 4.96747 8.87867 6.52411 9.85506 7.48422L21.429 18.8652C22.4053 19.8253 23.9884 19.8253 24.9648 18.8652L24.967 18.863C25.9433 17.9029 25.9433 16.3463 24.967 15.3862L13.3931 4.0052C12.4167 3.04509 10.8336 3.04509 9.85726 4.0052Z" fill="#6562DE"/>
<path d="M6.58512 26.5762L6.58733 26.5741C7.56371 25.614 7.56371 24.0573 6.58733 23.0972L5.30599 21.8372C4.3296 20.8771 2.74657 20.8771 1.77019 21.8372L1.76799 21.8394C0.791603 22.7995 0.791603 24.3561 1.76799 25.3162L3.04933 26.5762C4.02571 27.5363 5.60874 27.5363 6.58512 26.5762Z" fill="#6562DE"/>
<path d="M13.7289 25.1294L13.7311 25.1272C14.7075 24.1671 14.7075 22.6105 13.7311 21.6504L8.68282 16.6862C7.70643 15.7261 6.1234 15.7261 5.14702 16.6862L5.14482 16.6884C4.16843 17.6485 4.16843 19.2051 5.14482 20.1652L10.1931 25.1294C11.1695 26.0895 12.7525 26.0895 13.7289 25.1294Z" fill="#6562DE"/>
<path d="M23.6344 26.3082L23.6366 26.306C24.613 25.3459 24.613 23.7892 23.6366 22.8291L12.0627 11.4482C11.0864 10.4881 9.50333 10.4881 8.52694 11.4482L8.52474 11.4503C7.54836 12.4104 7.54836 13.9671 8.52474 14.9272L20.0986 26.3082C21.075 27.2683 22.6581 27.2683 23.6344 26.3082Z" fill="#6562DE"/>
<path d="M28.4555 13.7371L28.4577 13.7349C29.4341 12.7748 29.4341 11.2182 28.4577 10.2581L23.4094 5.29394C22.433 4.33383 20.85 4.33383 19.8736 5.29394L19.8714 5.2961C18.895 6.25621 18.895 7.81285 19.8714 8.77296L24.9197 13.7371C25.8961 14.6972 27.4791 14.6972 28.4555 13.7371Z" fill="#6562DE"/>
</g>
<defs>
<clipPath id="clip0_1_662">
<rect width="142" height="29" fill="white" transform="translate(0 0.5)"/>
</clipPath>
</defs>
</svg>
