<?xml version="1.0" encoding="UTF-8" standalone="no"?>
<!-- Created with Inkscape (http://www.inkscape.org/) -->

<svg
   version="1.1"
   id="svg2"
   width="632.65997"
   height="143.96533"
   viewBox="0 0 632.65997 143.96533"
   sodipodi:docname="Songify_Logo-02-Black.ai"
   xmlns:inkscape="http://www.inkscape.org/namespaces/inkscape"
   xmlns:sodipodi="http://sodipodi.sourceforge.net/DTD/sodipodi-0.dtd"
   xmlns="http://www.w3.org/2000/svg"
   xmlns:svg="http://www.w3.org/2000/svg">
  <defs
     id="defs6">
    <clipPath
       clipPathUnits="userSpaceOnUse"
       id="clipPath16">
      <path
         d="M 0,107.974 H 474.495 V 0 H 0 Z"
         id="path14" />
    </clipPath>
  </defs>
  <sodipodi:namedview
     id="namedview4"
     pagecolor="#ffffff"
     bordercolor="#000000"
     borderopacity="0.25"
     inkscape:showpageshadow="2"
     inkscape:pageopacity="0.0"
     inkscape:pagecheckerboard="0"
     inkscape:deskcolor="#d1d1d1" />
  <g
     id="g8"
     inkscape:groupmode="layer"
     inkscape:label="Songify_Logo-02-Black"
     transform="matrix(1.3333333,0,0,-1.3333333,0,143.96533)">
    <g
       id="g10">
      <g
         id="g12"
         clip-path="url(#clipPath16)">
        <g
           id="g18"
           transform="translate(140.5521,59.9834)">
          <path
             d="m 0,0 c 0,2.927 0.664,5.405 1.996,7.436 1.33,2.028 3.094,3.675 5.29,4.94 2.195,1.263 4.673,2.179 7.435,2.744 2.76,0.565 5.539,0.849 8.334,0.849 2.328,0 4.591,-0.184 6.786,-0.549 2.196,-0.366 4.242,-0.849 6.138,-1.447 1.897,-0.599 3.609,-1.332 5.141,-2.196 1.529,-0.866 2.794,-1.797 3.792,-2.795 L 34.033,-2.196 c -0.466,0.864 -1.215,1.63 -2.245,2.296 -1.033,0.664 -2.163,1.212 -3.393,1.646 -1.232,0.433 -2.513,0.765 -3.843,0.998 -1.332,0.233 -2.595,0.35 -3.793,0.35 -1.464,0 -2.679,-0.217 -3.643,-0.649 -0.965,-0.433 -1.447,-1.048 -1.447,-1.846 0,-1.198 0.749,-2.114 2.246,-2.745 1.497,-0.633 3.376,-1.214 5.639,-1.747 2.261,-0.533 4.691,-1.097 7.285,-1.696 2.596,-0.599 5.024,-1.465 7.286,-2.596 2.262,-1.131 4.142,-2.628 5.639,-4.491 1.497,-1.863 2.246,-4.291 2.246,-7.285 0,-2.929 -0.716,-5.407 -2.146,-7.435 -1.431,-2.031 -3.293,-3.678 -5.589,-4.941 -2.296,-1.265 -4.875,-2.18 -7.735,-2.745 -2.861,-0.564 -5.689,-0.848 -8.483,-0.848 -2.33,0 -4.741,0.184 -7.236,0.549 -2.495,0.366 -4.875,0.849 -7.136,1.447 -2.263,0.599 -4.292,1.33 -6.088,2.196 -1.797,0.864 -3.194,1.797 -4.192,2.795 l 10.879,11.177 c 0.598,-0.797 1.43,-1.481 2.495,-2.046 1.063,-0.566 2.245,-1.032 3.543,-1.397 1.297,-0.366 2.645,-0.648 4.042,-0.848 1.397,-0.2 2.76,-0.299 4.092,-0.299 2.128,0 3.975,0.214 5.539,0.648 1.563,0.433 2.345,1.081 2.345,1.946 0,0.998 -0.748,1.813 -2.245,2.446 -1.497,0.631 -3.378,1.212 -5.639,1.747 -2.263,0.531 -4.691,1.13 -7.286,1.796 -2.595,0.665 -5.024,1.562 -7.286,2.695 -2.262,1.13 -4.141,2.577 -5.638,4.341 C 0.749,-4.975 0,-2.729 0,0"
             style="fill:#101109;fill-opacity:1;fill-rule:nonzero;stroke:none"
             id="path20" />
        </g>
        <g
           id="g22"
           transform="translate(204.9252,50.0029)">
          <path
             d="m 0,0 c 0,-3.593 0.881,-6.571 2.645,-8.933 1.762,-2.362 4.706,-3.543 8.833,-3.543 4.124,0 7.068,1.181 8.832,3.543 1.762,2.362 2.645,5.34 2.645,8.933 0,3.593 -0.883,6.57 -2.645,8.933 -1.764,2.36 -4.708,3.543 -8.832,3.543 -4.127,0 -7.071,-1.183 -8.833,-3.543 C 0.881,6.57 0,3.593 0,0 m -15.77,0 c 0,3.726 0.565,7.186 1.697,10.38 1.131,3.193 2.827,5.938 5.09,8.233 2.261,2.296 5.106,4.092 8.534,5.39 3.426,1.298 7.401,1.946 11.927,1.946 4.523,0 8.499,-0.648 11.926,-1.946 3.426,-1.298 6.271,-3.094 8.533,-5.39 2.261,-2.295 3.959,-5.04 5.091,-8.233 1.129,-3.194 1.696,-6.654 1.696,-10.38 0,-3.728 -0.567,-7.187 -1.696,-10.38 -1.132,-3.193 -2.83,-5.938 -5.091,-8.234 -2.262,-2.295 -5.107,-4.092 -8.533,-5.389 -3.427,-1.298 -7.403,-1.946 -11.926,-1.946 -4.526,0 -8.501,0.648 -11.927,1.946 -3.428,1.297 -6.273,3.094 -8.534,5.389 -2.263,2.296 -3.959,5.041 -5.09,8.234 -1.132,3.193 -1.697,6.652 -1.697,10.38"
             style="fill:#101109;fill-opacity:1;fill-rule:nonzero;stroke:none"
             id="path24" />
        </g>
        <g
           id="g26"
           transform="translate(248.2396,25.0518)">
          <path
             d="m 0,0 v 49.902 h 15.569 l 1.897,-5.888 c 1.861,2.328 3.942,4.057 6.237,5.19 2.296,1.13 5.141,1.696 8.533,1.696 2.994,0 5.49,-0.548 7.486,-1.646 1.996,-1.099 3.593,-2.545 4.791,-4.342 1.197,-1.797 2.046,-3.859 2.545,-6.187 0.499,-2.33 0.749,-4.726 0.749,-7.187 V 0 H 30.341 v 30.24 c 0,2.795 -0.567,4.692 -1.697,5.69 -1.132,0.998 -2.462,1.497 -3.993,1.497 -2.594,0 -4.99,-1.565 -7.185,-4.692 L 17.466,0 Z"
             style="fill:#101109;fill-opacity:1;fill-rule:nonzero;stroke:none"
             id="path28" />
        </g>
        <g
           id="g30"
           transform="translate(326.4867,62.4785)">
          <path
             d="m 0,0 c -2.929,0 -5.125,-0.716 -6.588,-2.146 -1.464,-1.431 -2.195,-3.029 -2.195,-4.791 0,-1.763 0.731,-3.36 2.195,-4.791 1.463,-1.431 3.659,-2.145 6.588,-2.145 2.927,0 5.122,0.714 6.587,2.145 1.463,1.431 2.195,3.028 2.195,4.791 0,1.762 -0.732,3.36 -2.195,4.791 C 5.122,-0.716 2.927,0 0,0 m -6.987,-42.018 c -1.464,-0.931 -2.196,-2.062 -2.196,-3.393 0,-0.799 0.432,-1.463 1.298,-1.996 0.864,-0.532 1.962,-0.914 3.293,-1.149 1.33,-0.232 2.745,-0.348 4.242,-0.348 1.497,0 2.911,0.099 4.242,0.299 1.33,0.2 2.428,0.516 3.294,0.948 0.864,0.433 1.297,0.916 1.297,1.447 0,0.733 -0.433,1.314 -1.297,1.747 -0.866,0.434 -2.031,0.782 -3.494,1.048 -1.464,0.267 -3.111,0.483 -4.94,0.648 -1.831,0.167 -3.743,0.416 -5.739,0.749 M 0,-27.347 c -1.266,0 -2.48,0.066 -3.644,0.2 -1.165,0.132 -2.279,0.299 -3.343,0.499 -0.866,-0.267 -1.297,-0.766 -1.297,-1.498 0,-1.197 0.798,-2.012 2.395,-2.445 1.597,-0.432 3.593,-0.765 5.989,-0.998 2.395,-0.233 5.005,-0.515 7.834,-0.848 2.828,-0.334 5.439,-0.965 7.835,-1.896 2.395,-0.933 4.391,-2.346 5.988,-4.242 1.597,-1.896 2.395,-4.507 2.395,-7.834 0,-3.593 -1.215,-6.57 -3.642,-8.933 -2.43,-2.361 -5.457,-4.142 -9.083,-5.34 -3.627,-1.197 -7.552,-1.797 -11.777,-1.797 -4.226,0 -8.151,0.6 -11.777,1.797 -3.627,1.198 -6.654,2.962 -9.082,5.29 -2.43,2.329 -3.643,5.224 -3.643,8.683 0,1.797 0.415,3.511 1.248,5.14 0.831,1.631 2.045,3.011 3.642,4.142 -1.197,0.998 -2.162,2.196 -2.893,3.593 -0.734,1.397 -1.099,3.094 -1.099,5.09 0,2.061 0.333,3.892 0.998,5.489 0.665,1.597 1.562,2.994 2.695,4.193 -1.664,1.996 -2.844,4.173 -3.543,6.537 -0.699,2.36 -0.948,4.755 -0.749,7.185 0.2,2.429 0.865,4.774 1.996,7.036 1.131,2.262 2.711,4.258 4.742,5.989 2.028,1.729 4.541,3.127 7.535,4.192 2.994,1.063 6.42,1.597 10.28,1.597 0.998,0 1.961,-0.035 2.894,-0.1 0.931,-0.067 1.829,-0.167 2.695,-0.3 l 14.072,6.887 5.988,-8.982 -6.587,-4.392 c 2.927,-2.929 4.707,-6.338 5.339,-10.23 0.632,-3.892 0.151,-7.602 -1.446,-11.128 -1.598,-3.528 -4.309,-6.504 -8.135,-8.933 -3.826,-2.43 -8.766,-3.643 -14.82,-3.643"
             style="fill:#101109;fill-opacity:1;fill-rule:nonzero;stroke:none"
             id="path32" />
        </g>
        <path
           d="M 357.724,74.954 H 375.19 V 25.052 h -17.466 z m 0,19.762 H 375.19 V 80.444 h -17.466 z"
           style="fill:#101109;fill-opacity:1;fill-rule:nonzero;stroke:none"
           id="path34" />
        <g
           id="g36"
           transform="translate(386.1674,77.0498)">
          <path
             d="m 0,0 c 0,3.992 0.699,7.151 2.097,9.481 1.396,2.329 3.193,4.092 5.388,5.29 2.197,1.198 4.658,1.979 7.386,2.346 2.728,0.364 5.39,0.549 7.984,0.549 H 33.036 V 3.992 H 25.151 C 23.354,3.992 21.94,3.825 20.909,3.493 19.877,3.159 19.113,2.711 18.614,2.146 18.115,1.58 17.799,0.931 17.666,0.2 c -0.134,-0.733 -0.2,-1.497 -0.2,-2.296 H 30.74 V -15.569 H 17.466 V -51.998 H 0 v 36.429 H -6.387 V -2.096 H 0 Z"
             style="fill:#101109;fill-opacity:1;fill-rule:nonzero;stroke:none"
             id="path38" />
        </g>
        <g
           id="g40"
           transform="translate(427.1869,16.1689)">
          <path
             d="m 0,0 c 1.131,0 2.461,0.233 3.992,0.698 1.53,0.467 3.028,1.099 4.491,1.897 1.463,0.799 2.761,1.747 3.893,2.844 1.131,1.098 1.896,2.246 2.296,3.444 L -5.389,58.785 H 12.077 L 20.96,32.037 29.842,58.785 H 47.308 L 25.251,3.793 c -1.332,-3.327 -2.694,-6.171 -4.092,-8.534 -1.397,-2.361 -2.962,-4.307 -4.691,-5.838 -1.731,-1.53 -3.643,-2.661 -5.739,-3.394 -2.095,-0.731 -4.508,-1.097 -7.236,-1.097 z"
             style="fill:#101109;fill-opacity:1;fill-rule:nonzero;stroke:none"
             id="path42" />
        </g>
        <g
           id="g44"
           transform="translate(122.8063,81.1376)">
          <path
             d="m 0,0 v 0 c -3.905,-3.905 -10.237,-3.905 -14.142,0 l -5.121,5.121 c -3.905,3.905 -3.905,10.237 0,14.142 v 0 c 3.905,3.905 10.237,3.905 14.142,0 L 0,14.142 C 3.905,10.237 3.905,3.905 0,0"
             style="fill:#101109;fill-opacity:1;fill-rule:nonzero;stroke:none"
             id="path46" />
        </g>
        <g
           id="g48"
           transform="translate(95.7848,38.9112)">
          <path
             d="m 0,0 v 0 c -3.905,-3.905 -10.237,-3.905 -14.142,0 l -46.27,46.269 c -3.905,3.906 -3.905,10.237 0,14.143 v 0 c 3.906,3.905 10.237,3.905 14.142,0 L 0,14.142 C 3.905,10.237 3.905,3.905 0,0"
             style="fill:#101109;fill-opacity:1;fill-rule:nonzero;stroke:none"
             id="path50" />
        </g>
        <g
           id="g52"
           transform="translate(3.0371,26.8362)">
          <path
             d="m 0,0 v 0 c 3.905,3.905 10.237,3.905 14.142,0 l 5.121,-5.121 c 3.905,-3.905 3.905,-10.237 0,-14.142 v 0 c -3.905,-3.905 -10.237,-3.905 -14.142,0 L 0,-14.142 C -3.905,-10.237 -3.905,-3.905 0,0"
             style="fill:#101109;fill-opacity:1;fill-rule:nonzero;stroke:none"
             id="path54" />
        </g>
        <g
           id="g56"
           transform="translate(16.5479,47.7645)">
          <path
             d="m 0,0 v 0 c 3.905,3.905 10.237,3.905 14.142,0 l 20.176,-20.176 c 3.905,-3.905 3.905,-10.237 0,-14.142 v 0 c -3.905,-3.905 -10.237,-3.905 -14.142,0 L 0,-14.142 C -3.905,-10.237 -3.905,-3.905 0,0"
             style="fill:#101109;fill-opacity:1;fill-rule:nonzero;stroke:none"
             id="path58" />
        </g>
        <g
           id="g60"
           transform="translate(30.0586,69.0626)">
          <path
             d="m 0,0 v 0 c 3.905,3.905 10.237,3.905 14.142,0 l 46.27,-46.269 c 3.905,-3.906 3.905,-10.237 0,-14.143 v 0 c -3.906,-3.905 -10.237,-3.905 -14.142,0 L 0,-14.142 C -3.905,-10.237 -3.905,-3.905 0,0"
             style="fill:#101109;fill-opacity:1;fill-rule:nonzero;stroke:none"
             id="path62" />
        </g>
        <g
           id="g64"
           transform="translate(75.431,94.0738)">
          <path
             d="m 0,0 v 0 c 3.905,3.905 10.237,3.905 14.142,0 l 20.176,-20.176 c 3.905,-3.905 3.905,-10.237 0,-14.142 v 0 c -3.905,-3.905 -10.237,-3.905 -14.142,0 L 0,-14.142 C -3.905,-10.237 -3.905,-3.905 0,0"
             style="fill:#101109;fill-opacity:1;fill-rule:nonzero;stroke:none"
             id="path66" />
        </g>
      </g>
    </g>
  </g>
</svg>
