<svg width="14" height="15" viewBox="0 0 14 15" fill="none" xmlns="http://www.w3.org/2000/svg">
<path d="M13.6445 0.941406C13.8633 1.10547 14 1.35156 14 1.625V3.59375V10.8125C14 12.043 12.8242 13 11.375 13C9.92578 13 8.75 12.043 8.75 10.8125C8.75 9.60938 9.92578 8.625 11.375 8.625C11.6758 8.625 11.9766 8.67969 12.25 8.76172V4.76953L5.25 6.875V12.5625C5.25 13.793 4.07422 14.75 2.625 14.75C1.17578 14.75 0 13.793 0 12.5625C0 11.3594 1.17578 10.375 2.625 10.375C2.92578 10.375 3.22656 10.4297 3.5 10.5117V6.21875V4.25C3.5 3.86719 3.74609 3.53906 4.10156 3.42969L12.8516 0.804688C13.125 0.722656 13.4258 0.777344 13.6445 0.941406Z" fill="black"/>
</svg>
