<svg width="250" height="250" viewBox="0 0 250 250" fill="none" xmlns="http://www.w3.org/2000/svg">
<rect width="250" height="250" rx="12" fill="white" fill-opacity="0.2"/>
<path d="M140 107.5V112.5C140 113.672 139.219 114.688 138.047 114.922L130 116.953V138.75C130 142.266 126.016 145 121.25 145C116.406 145 112.5 142.266 112.5 138.75C112.5 135.312 116.406 132.5 121.25 132.5C122.578 132.5 123.828 132.734 125 133.125V115V110C125 108.906 125.781 107.891 126.875 107.578L136.875 105.078C137.578 104.922 138.359 105.078 138.984 105.547C139.609 106.016 140 106.797 140 107.5Z" fill="white" fill-opacity="0.4"/>
</svg>
