<svg width="13" height="11" viewBox="0 0 13 11" fill="none" xmlns="http://www.w3.org/2000/svg">
<path d="M7.69531 0.320312C7.95312 0.203125 8.28125 0.25 8.49219 0.460938L12.2422 3.83594C12.4062 3.97656 12.5 4.16406 12.5 4.375C12.5 4.60938 12.4062 4.79688 12.2422 4.9375L8.49219 8.3125C8.28125 8.52344 7.95312 8.57031 7.69531 8.45312C7.41406 8.33594 7.25 8.05469 7.25 7.75V6.25H5C3.75781 6.25 2.75 7.25781 2.75 8.5C2.75 9.22656 3.03125 9.625 3.26562 9.83594C3.38281 9.95312 3.5 10.1172 3.5 10.3047C3.5 10.5625 3.28906 10.75 3.03125 10.75C2.96094 10.75 2.89062 10.75 2.84375 10.7266C2.39844 10.4688 0.5 9.29688 0.5 6.625C0.5 4.35156 2.32812 2.5 4.625 2.5H7.25V1C7.25 0.71875 7.41406 0.4375 7.69531 0.320312Z" fill="white"/>
</svg>
