<svg width="36" height="36" viewBox="0 0 36 36" fill="none" xmlns="http://www.w3.org/2000/svg">
<rect width="36" height="36" rx="4" fill="#6562DE"/>
<path d="M24.0977 11.6523C25.2734 12.8555 25.2734 14.7969 24.0977 16L23.9609 16.1094L19.6406 11.7891L19.75 11.6523C20.9531 10.4766 22.8945 10.4766 24.0977 11.6523ZM19.0117 12.418L23.332 16.7383L23.2227 16.875C22.5391 17.5312 21.6641 17.832 20.7891 17.75L18 14.9609C17.918 14.0859 18.2188 13.2109 18.875 12.5273L19.0117 12.418ZM17.2617 15.4531L20.2969 18.4883L19.8867 18.8711L18.875 19.7461V23.875C18.875 24.3672 18.4648 24.75 18 24.75C17.5078 24.75 17.125 24.3672 17.125 23.875V21.25L13.3242 24.5586C12.9688 24.8594 12.4492 24.832 12.1211 24.5039L11.2461 23.6289C10.918 23.3008 10.8906 22.7812 11.1914 22.4258L16.8789 15.8633L17.2617 15.4531Z" fill="white"/>
</svg>
