<svg width="16" height="15" viewBox="0 0 16 15" fill="none" xmlns="http://www.w3.org/2000/svg">
<path d="M14.0977 1.65234C15.2734 2.85547 15.2734 4.79688 14.0977 6L13.9609 6.10938L9.64062 1.78906L9.75 1.65234C10.9531 0.476562 12.8945 0.476562 14.0977 1.65234ZM9.01172 2.41797L13.332 6.73828L13.2227 6.875C12.5391 7.53125 11.6641 7.83203 10.7891 7.75L8 4.96094C7.91797 4.08594 8.21875 3.21094 8.875 2.52734L9.01172 2.41797ZM7.26172 5.45312L10.2969 8.48828L9.88672 8.87109L8.875 9.74609V13.875C8.875 14.3672 8.46484 14.75 8 14.75C7.50781 14.75 7.125 14.3672 7.125 13.875V11.25L3.32422 14.5586C2.96875 14.8594 2.44922 14.832 2.12109 14.5039L1.24609 13.6289C0.917969 13.3008 0.890625 12.7812 1.19141 12.4258L6.87891 5.86328L7.26172 5.45312Z" fill="white"/>
</svg>
