<svg width="37" height="36" viewBox="0 0 37 36" fill="none" xmlns="http://www.w3.org/2000/svg">
<rect x="0.5" width="36" height="36" rx="4" fill="#6562DE"/>
<path d="M11.5 17.75C11.5 15.2617 12.8125 12.9648 15 11.707C17.1602 10.4492 19.8125 10.4492 22 11.707C24.1602 12.9648 25.5 15.2617 25.5 17.75C25.5 20.2656 24.1602 22.5625 22 23.8203C19.8125 25.0781 17.1602 25.0781 15 23.8203C12.8125 22.5625 11.5 20.2656 11.5 17.75ZM18.5 15.125C19.4297 15.125 20.2773 15.6445 20.7695 16.4375C21.2344 17.2578 21.2344 18.2695 20.7695 19.0625C20.2773 19.8828 19.4297 20.375 18.5 20.375C17.543 20.375 16.6953 19.8828 16.2031 19.0625C15.7383 18.2695 15.7383 17.2578 16.2031 16.4375C16.6953 15.6445 17.543 15.125 18.5 15.125ZM18.5 21.25C19.7305 21.25 20.8789 20.5938 21.5078 19.5C22.1367 18.4336 22.1367 17.0938 21.5078 16C20.8789 14.9336 19.7305 14.25 18.5 14.25C17.2422 14.25 16.0938 14.9336 15.4648 16C14.8359 17.0938 14.8359 18.4336 15.4648 19.5C16.0938 20.5938 17.2422 21.25 18.5 21.25ZM18.5 18.625C18.9648 18.625 19.375 18.2422 19.375 17.75C19.375 17.2852 18.9648 16.875 18.5 16.875C18.0078 16.875 17.625 17.2852 17.625 17.75C17.625 18.2422 18.0078 18.625 18.5 18.625Z" fill="white"/>
</svg>
