<svg width="14" height="16" viewBox="0 0 14 16" fill="none" xmlns="http://www.w3.org/2000/svg">
<path d="M0 7.75C0 5.26172 1.3125 2.96484 3.5 1.70703C5.66016 0.449219 8.3125 0.449219 10.5 1.70703C12.6602 2.96484 14 5.26172 14 7.75C14 10.2656 12.6602 12.5625 10.5 13.8203C8.3125 15.0781 5.66016 15.0781 3.5 13.8203C1.3125 12.5625 0 10.2656 0 7.75ZM7 5.125C7.92969 5.125 8.77734 5.64453 9.26953 6.4375C9.73438 7.25781 9.73438 8.26953 9.26953 9.0625C8.77734 9.88281 7.92969 10.375 7 10.375C6.04297 10.375 5.19531 9.88281 4.70312 9.0625C4.23828 8.26953 4.23828 7.25781 4.70312 6.4375C5.19531 5.64453 6.04297 5.125 7 5.125ZM7 11.25C8.23047 11.25 9.37891 10.5938 10.0078 9.5C10.6367 8.43359 10.6367 7.09375 10.0078 6C9.37891 4.93359 8.23047 4.25 7 4.25C5.74219 4.25 4.59375 4.93359 3.96484 6C3.33594 7.09375 3.33594 8.43359 3.96484 9.5C4.59375 10.5938 5.74219 11.25 7 11.25ZM7 8.625C7.46484 8.625 7.875 8.24219 7.875 7.75C7.875 7.28516 7.46484 6.875 7 6.875C6.50781 6.875 6.125 7.28516 6.125 7.75C6.125 8.24219 6.50781 8.625 7 8.625Z" fill="white"/>
</svg>
